<svg width="36" height="35" viewBox="0 0 36 35" fill="none" xmlns="http://www.w3.org/2000/svg">
<path d="M34.6066 9.69411C34.6066 5.06524 30.7478 1.29936 26.0048 1.29936C22.4364 1.29936 19.263 3.4774 17.993 6.63886C16.7227 3.4774 13.5492 1.29936 9.98096 1.29936C5.23798 1.29936 1.37912 5.06524 1.37912 9.69411C1.37912 13.1722 3.52963 16.2077 6.7473 17.4698C3.52963 18.732 1.37912 21.7675 1.37912 25.2456C1.37912 29.8744 5.23798 33.6403 9.98096 33.6403C13.5492 33.6403 16.7227 31.4623 17.993 28.3008C19.263 31.4623 22.4364 33.6403 26.0048 33.6403C30.7478 33.6403 34.6066 29.8744 34.6066 25.2456C34.6066 21.7675 32.4561 18.732 29.2385 17.4698C32.4561 16.2077 34.6066 13.1722 34.6066 9.69411ZM27.769 17.0762C27.5815 17.1185 27.4486 17.2819 27.4486 17.4698C27.4486 17.6578 27.5815 17.8212 27.769 17.8634C31.307 18.666 33.7781 21.7016 33.7781 25.2456C33.7781 29.4287 30.2911 32.8318 26.0048 32.8318C22.3466 32.8318 19.1475 30.2988 18.3983 26.8093C18.3583 26.6222 18.189 26.488 17.993 26.488C17.797 26.488 17.6277 26.6222 17.5876 26.8093C16.8382 30.2988 13.6392 32.8318 9.98096 32.8318C5.6947 32.8318 2.20761 29.4287 2.20761 25.2456C2.20761 21.7016 4.67871 18.666 8.21678 17.8634C8.40428 17.8212 8.53717 17.6578 8.53717 17.4698C8.53717 17.2819 8.40428 17.1185 8.21678 17.0762C4.67871 16.2736 2.20761 13.2381 2.20761 9.69411C2.20761 5.51095 5.6947 2.10789 9.98096 2.10789C13.6392 2.10789 16.8382 4.64084 17.5876 8.13036C17.6277 8.31749 17.797 8.45172 17.993 8.45172C18.189 8.45172 18.3583 8.31749 18.3983 8.13036C19.1475 4.64084 22.3466 2.10789 26.0048 2.10789C30.2911 2.10789 33.7781 5.51095 33.7781 9.69411C33.7781 13.2381 31.307 16.2736 27.769 17.0762Z" stroke="#3DB370" stroke-width="2"/>
</svg>
